<svg width="288" height="286" viewBox="0 0 288 286" fill="none" xmlns="http://www.w3.org/2000/svg">
<path d="M0 48C0 21.4903 21.4903 0 48 0H240C266.51 0 288 21.4903 288 48V238C288 264.51 266.51 286 240 286H48C21.4903 286 0 264.51 0 238V48Z" fill="white"/>
<path d="M168.52 107H119.46C83.8603 107 55.0004 136.56 55.0004 173C54.9924 173.665 55.1154 174.324 55.3624 174.941C55.6094 175.558 55.9755 176.12 56.4398 176.596C56.9041 177.071 57.4576 177.45 58.0685 177.712C58.6794 177.973 59.3359 178.112 60.0004 178.12H95.7303C115.85 178.12 133.18 167.92 144 152.3C154.82 167.92 172.15 178.12 192.27 178.12H228C228.665 178.112 229.321 177.973 229.932 177.712C230.543 177.45 231.096 177.071 231.561 176.596C232.025 176.12 232.391 175.558 232.638 174.941C232.885 174.324 233.008 173.665 233 173C232.99 136.56 204.13 107 168.52 107Z" fill="black"/>
</svg>
