<svg width="25" height="24" viewBox="0 0 25 24" fill="none" xmlns="http://www.w3.org/2000/svg">
<g clip-path="url(#clip0_44_47)">
<path d="M12.5 24C19.1274 24 24.5 18.6274 24.5 12C24.5 5.37258 19.1274 0 12.5 0C5.87258 0 0.5 5.37258 0.5 12C0.5 18.6274 5.87258 24 12.5 24Z" fill="#FF4500"/>
<path d="M20.5 12C20.5 11.0316 19.714 10.2456 18.7456 10.2456C18.2684 10.2456 17.8474 10.4281 17.5386 10.7369C16.3456 9.88074 14.6895 9.31934 12.8649 9.24916L13.6649 5.50179L16.2614 6.04916C16.2895 6.70881 16.8368 7.24214 17.5105 7.24214C18.1983 7.24214 18.7597 6.68074 18.7597 5.99302C18.7597 5.3053 18.1983 4.7439 17.5105 4.7439C17.0193 4.7439 16.5983 5.0246 16.4018 5.44565L13.4965 4.82811C13.4123 4.81407 13.3281 4.82811 13.2579 4.87021C13.1877 4.91232 13.1456 4.98249 13.1176 5.0667L12.2333 9.24916C10.3667 9.3053 8.6965 9.85267 7.48948 10.7369C7.18071 10.4421 6.74562 10.2456 6.28246 10.2456C5.31404 10.2456 4.52808 11.0316 4.52808 12C4.52808 12.7158 4.94913 13.3193 5.56667 13.6C5.5386 13.7685 5.52457 13.9509 5.52457 14.1334C5.52457 16.8281 8.65439 19.0035 12.5281 19.0035C16.4018 19.0035 19.5316 16.8281 19.5316 14.1334C19.5316 13.9509 19.5175 13.7825 19.4895 13.6141C20.0649 13.3334 20.5 12.7158 20.5 12ZM8.50001 13.2492C8.50001 12.5614 9.06141 12 9.74913 12C10.4368 12 10.9983 12.5614 10.9983 13.2492C10.9983 13.9369 10.4368 14.4983 9.74913 14.4983C9.06141 14.4983 8.50001 13.9369 8.50001 13.2492ZM15.4754 16.5474C14.6193 17.4035 12.9912 17.4597 12.514 17.4597C12.0368 17.4597 10.3947 17.3895 9.55264 16.5474C9.42632 16.4211 9.42632 16.2106 9.55264 16.0842C9.67895 15.9579 9.88948 15.9579 10.0158 16.0842C10.5491 16.6176 11.7 16.8141 12.5281 16.8141C13.3561 16.8141 14.493 16.6176 15.0404 16.0842C15.1667 15.9579 15.3772 15.9579 15.5035 16.0842C15.6018 16.2246 15.6018 16.4211 15.4754 16.5474ZM15.2509 14.4983C14.5632 14.4983 14.0018 13.9369 14.0018 13.2492C14.0018 12.5614 14.5632 12 15.2509 12C15.9386 12 16.5 12.5614 16.5 13.2492C16.5 13.9369 15.9386 14.4983 15.2509 14.4983Z" fill="white"/>
</g>
<defs>
<clipPath id="clip0_44_47">
<rect width="24" height="24" fill="white" transform="translate(0.5)"/>
</clipPath>
</defs>
</svg>
